<svg width="75" height="78" fill="none" xmlns="http://www.w3.org/2000/svg"><path d="M53.302 30.578h8.29a3.21 3.21 0 0 1-.118-.83c0-.283.047-.558.119-.828h-8.29c.02.274.033.551.033.828 0 .278-.013.554-.034.83Z" fill="url(#a)"/><path d="M65.73 29.75a3.236 3.236 0 0 0-3.23-3.234 3.236 3.236 0 0 0-3.231 3.233 3.235 3.235 0 0 0 3.23 3.233c1.782 0 3.231-1.45 3.231-3.233Z" fill="url(#b)"/><path d="M23.71 28.92h-8.291c.072.27.118.546.118.83 0 .282-.046.558-.118.828h8.29a10.865 10.865 0 0 1-.033-.828c0-.279.012-.555.034-.83Z" fill="url(#c)"/><path d="M11.282 29.749a3.236 3.236 0 0 0 3.23 3.233c1.782 0 3.231-1.45 3.231-3.233a3.235 3.235 0 0 0-3.23-3.233 3.236 3.236 0 0 0-3.231 3.233Z" fill="url(#d)"/><path d="m46.907 17.541 4.314-7.085a3.194 3.194 0 0 1-.77-.33 3.193 3.193 0 0 1-.645-.532l-4.314 7.084a10.63 10.63 0 0 1 1.415.863Z" fill="url(#e)"/><path d="M52.667 6.488a3.233 3.233 0 0 0-4.44 1.08 3.239 3.239 0 0 0 1.077 4.443 3.233 3.233 0 0 0 3.363-5.523Z" fill="url(#f)"/><path d="m30.093 41.969-4.314 7.085c.268.079.527.182.77.33.24.147.452.33.645.532l4.314-7.085a10.723 10.723 0 0 1-1.415-.862Z" fill="url(#g)"/><path d="M24.33 53.024a3.233 3.233 0 0 0 4.441-1.078 3.238 3.238 0 0 0-1.078-4.444 3.233 3.233 0 0 0-4.44 1.08 3.238 3.238 0 0 0 1.078 4.442Z" fill="url(#h)"/><path d="M30.782 17.081c.236-.143.48-.278.724-.402l-4.313-7.085a3.207 3.207 0 0 1-.646.532 3.195 3.195 0 0 1-.77.33l4.315 7.085c.224-.16.453-.315.69-.46Z" fill="url(#i)"/><path d="M23.253 10.931a3.233 3.233 0 0 0 4.44 1.08 3.238 3.238 0 0 0 1.077-4.444 3.234 3.234 0 0 0-4.44-1.079 3.238 3.238 0 0 0-1.077 4.443Z" fill="url(#j)"/><path d="M46.215 42.428c-.236.145-.479.279-.724.403l4.314 7.085c.194-.202.404-.385.645-.532.243-.148.502-.251.77-.33l-4.314-7.085a11.09 11.09 0 0 1-.69.46Z" fill="url(#k)"/><path d="M53.743 48.579a3.233 3.233 0 0 0-4.44-1.079 3.238 3.238 0 0 0-1.078 4.443 3.234 3.234 0 0 0 4.44 1.08 3.239 3.239 0 0 0 1.078-4.444Z" fill="url(#l)"/><path d="M38.5 46.658c.278 0 .553-.008.828-.021v3.837a4.953 4.953 0 0 0-.828-.075c-.283 0-.558.029-.828.075v-3.837c.274.013.55.021.828.021Zm.828-33.787V9.035a4.96 4.96 0 0 1-.828.074c-.283 0-.558-.03-.828-.074v3.836a16.85 16.85 0 0 1 1.657 0ZM18.882 39.997c.362.417.656.894.865 1.415l4.498-2.595a16.79 16.79 0 0 1-.82-1.44l-4.543 2.62ZM58.04 19.326a4.97 4.97 0 0 1-.825-1.438l-4.567 2.634c.302.462.58.94.837 1.431l4.555-2.627Zm-38.252-1.438a4.988 4.988 0 0 1-.825 1.437l4.555 2.628c.256-.492.535-.97.837-1.431l-4.567-2.634Zm33.787 19.489c-.25.494-.523.975-.82 1.44l4.5 2.595c.208-.521.502-.998.864-1.415l-4.544-2.62ZM66 43.252a4.144 4.144 0 0 1-4.138 4.142 4.145 4.145 0 0 1-4.138-4.142 4.144 4.144 0 0 1 4.138-4.14A4.144 4.144 0 0 1 66 43.252Zm-1.657 0a2.484 2.484 0 0 0-2.48-2.482 2.484 2.484 0 0 0 0 4.966 2.485 2.485 0 0 0 2.48-2.483ZM38.5 51.227a4.144 4.144 0 0 1 4.138 4.14 4.145 4.145 0 0 1-4.138 4.142 4.145 4.145 0 0 1-4.138-4.141 4.145 4.145 0 0 1 4.138-4.141Zm0 1.658a2.485 2.485 0 0 0-2.482 2.483A2.486 2.486 0 0 0 38.5 57.85a2.485 2.485 0 0 0 2.481-2.483 2.485 2.485 0 0 0-2.48-2.483Zm0-44.602a4.145 4.145 0 0 1-4.138-4.141A4.145 4.145 0 0 1 38.5 0a4.145 4.145 0 0 1 4.138 4.141A4.145 4.145 0 0 1 38.5 8.282Zm0-1.658a2.485 2.485 0 0 0 2.481-2.483 2.485 2.485 0 0 0-2.48-2.483 2.485 2.485 0 0 0-2.483 2.483A2.485 2.485 0 0 0 38.5 6.624Zm19.224 9.533a4.144 4.144 0 0 1 4.138-4.141A4.144 4.144 0 0 1 66 16.156a4.144 4.144 0 0 1-4.138 4.142 4.144 4.144 0 0 1-4.138-4.141Zm1.657 0a2.484 2.484 0 0 0 2.481 2.483 2.485 2.485 0 0 0 2.481-2.483 2.485 2.485 0 0 0-2.48-2.483 2.484 2.484 0 0 0-2.482 2.483ZM19.275 43.252a4.144 4.144 0 0 1-4.138 4.142A4.145 4.145 0 0 1 11 43.252a4.144 4.144 0 0 1 4.138-4.14 4.144 4.144 0 0 1 4.137 4.14Zm-1.656 0a2.484 2.484 0 0 0-2.481-2.482 2.484 2.484 0 0 0 0 4.966 2.485 2.485 0 0 0 2.48-2.483Zm1.656-27.095a4.144 4.144 0 0 1-4.138 4.14A4.144 4.144 0 0 1 11 16.158a4.144 4.144 0 0 1 4.138-4.141 4.144 4.144 0 0 1 4.137 4.14Zm-1.656 0a2.484 2.484 0 0 0-2.481-2.483 2.485 2.485 0 0 0-2.481 2.483 2.485 2.485 0 0 0 2.48 2.483 2.484 2.484 0 0 0 2.482-2.483ZM38.5 45.454c-8.65 0-15.688-7.043-15.688-15.7s7.038-15.7 15.688-15.7 15.688 7.043 15.688 15.7-7.037 15.7-15.688 15.7Z" fill="url(#m)"/><path d="M38.501 15.577c-7.81 0-14.166 6.36-14.166 14.177 0 7.817 6.355 14.177 14.166 14.177 7.81 0 14.166-6.36 14.166-14.177 0-7.817-6.356-14.177-14.166-14.177Zm0 27.391c-7.279 0-13.204-5.93-13.204-13.214 0-7.288 5.925-13.214 13.204-13.214 7.282 0 13.204 5.926 13.204 13.214 0 7.285-5.922 13.214-13.204 13.214Z" fill="#fff"/><path d="M35.41 25.618v8.017h-1.826l-3.183-4.35v4.35h-2.14v-8.017h1.933l3.076 4.206v-4.206h2.14ZM39.188 27.616v1.277h2.575v1.933h-2.575v2.81h-2.227v-8.018h5.1v1.998h-2.873ZM49.241 27.606h-2.176v6.03h-2.217v-6.03h-2.176v-1.988h6.57v1.988ZM14.456 78c-.178 0-.358-.084-.51-.258-.366-.416-.434-1.192-.152-1.732 1.631-3.118 3.096-5.926 4.477-8.584.476-.917 1.101-1.424 1.759-1.426h.004c.67 0 1.312.522 1.81 1.468.996 1.9 2.013 3.828 2.997 5.692l1.5 2.846c.284.538.219 1.315-.146 1.733-.365.419-.89.322-1.174-.217l-1.5-2.844c-.985-1.866-2.003-3.795-3-5.697-.169-.32-.35-.51-.486-.51h-.001c-.125 0-.284.167-.435.458-1.382 2.66-2.847 5.47-4.48 8.59-.165.314-.412.48-.663.48ZM12.575 68.832H1.073c-.462 0-.837-.556-.837-1.242 0-.686.375-1.241.837-1.241h11.502c.462 0 .837.555.837 1.241 0 .685-.375 1.242-.837 1.242Z" fill="#fff"/><path d="M6.823 77.999c-.462 0-.837-.609-.837-1.36v-8.102c0-.751.375-1.36.837-1.36.462 0 .837.609.837 1.36v8.102c0 .751-.375 1.36-.837 1.36Z" fill="#fff"/><path d="M21.671 72.385a.79.79 0 0 1-.793.788.79.79 0 0 1-.794-.788.79.79 0 0 1 .794-.788c.439 0 .793.353.793.788Z" fill="#91FBFC"/><path d="M41.019 78a.67.67 0 0 1-.437-.172c-1.852-1.582-3.739-3.124-5.564-4.615a477.48 477.48 0 0 1-3.89-3.203c-.185-.154-.415.038-.416.345l-.007 1.743-.016 4.565c-.003.685-.387 1.238-.86 1.238h-.004c-.475-.004-.857-.564-.855-1.251l.017-4.565.016-4.59c.002-.445.167-.855.435-1.075a.638.638 0 0 1 .861.01 327.972 327.972 0 0 0 5.564 4.615c1.277 1.044 2.584 2.111 3.891 3.203.185.154.415-.037.416-.345l.024-6.233c.003-.685.387-1.237.86-1.237h.004c.475.004.858.564.855 1.25l-.035 9.079c-.001.445-.167.855-.435 1.075a.66.66 0 0 1-.424.164ZM71.522 77.34h-7.04c-1.787 0-3.24-2.153-3.24-4.8v-1.295c0-2.647 1.453-4.8 3.24-4.8h7.04c1.787 0 3.24 2.153 3.24 4.8v1.295c0 2.646-1.453 4.8-3.24 4.8Zm-7.04-8.416c-.864 0-1.567 1.041-1.567 2.32v1.295c0 1.28.703 2.321 1.567 2.321h7.04c.864 0 1.567-1.041 1.567-2.32v-1.295c0-1.28-.703-2.321-1.567-2.321h-7.04ZM56.875 70.356H50.336c-.498 0-.902.568-.902 1.27 0 .7.404 1.27.902 1.27h6.086c.219 0 .512-.017.512.416v.643c0 .383-.213.696-.474.696h-8.1c-.861 0-1.56-1.027-1.56-2.295v-1.28c0-1.268.699-2.296 1.56-2.296H57.791l.126-.012a.359.359 0 0 0 .132-.043.485.485 0 0 0 .081-.056l.044-.035c.021-.02.437-.415.428-1.08-.009-.589-.345-1.133-.811-1.226h-9.43c-1.783 0-3.228 2.126-3.228 4.747v1.28c0 2.623 1.445 4.748 3.227 4.748h8.326c1.056 0 1.916-1.264 1.916-2.818v-1.388a3.64 3.64 0 0 0-.078-.755c-.219-1.035-.874-1.786-1.65-1.786Z" fill="#fff"/><defs><linearGradient id="g" x1="28.643" y1="19.565" x2="28.643" y2="59.967" gradientUnits="userSpaceOnUse"><stop offset=".186" stop-color="#0080FF"/><stop offset=".378" stop-color="#039BFF"/><stop offset=".797" stop-color="#09D3FF"/><stop offset="1" stop-color="#0BE8FF"/></linearGradient><linearGradient id="a" x1="57.448" y1="19.558" x2="57.448" y2="59.959" gradientUnits="userSpaceOnUse"><stop offset=".186" stop-color="#0080FF"/><stop offset=".378" stop-color="#039BFF"/><stop offset=".797" stop-color="#09D3FF"/><stop offset="1" stop-color="#0BE8FF"/></linearGradient><linearGradient id="c" x1="19.564" y1="19.558" x2="19.564" y2="59.96" gradientUnits="userSpaceOnUse"><stop offset=".186" stop-color="#0080FF"/><stop offset=".378" stop-color="#039BFF"/><stop offset=".797" stop-color="#09D3FF"/><stop offset="1" stop-color="#0BE8FF"/></linearGradient><linearGradient id="d" x1="14.512" y1="19.558" x2="14.512" y2="59.96" gradientUnits="userSpaceOnUse"><stop offset=".186" stop-color="#0080FF"/><stop offset=".378" stop-color="#039BFF"/><stop offset=".797" stop-color="#09D3FF"/><stop offset="1" stop-color="#0BE8FF"/></linearGradient><linearGradient id="e" x1="48.357" y1="19.564" x2="48.357" y2="59.965" gradientUnits="userSpaceOnUse"><stop offset=".186" stop-color="#0080FF"/><stop offset=".378" stop-color="#039BFF"/><stop offset=".797" stop-color="#09D3FF"/><stop offset="1" stop-color="#0BE8FF"/></linearGradient><linearGradient id="f" x1="50.985" y1="19.564" x2="50.985" y2="59.966" gradientUnits="userSpaceOnUse"><stop offset=".186" stop-color="#0080FF"/><stop offset=".378" stop-color="#039BFF"/><stop offset=".797" stop-color="#09D3FF"/><stop offset="1" stop-color="#0BE8FF"/></linearGradient><linearGradient id="b" x1="62.499" y1="19.558" x2="62.499" y2="59.96" gradientUnits="userSpaceOnUse"><stop offset=".186" stop-color="#0080FF"/><stop offset=".378" stop-color="#039BFF"/><stop offset=".797" stop-color="#09D3FF"/><stop offset="1" stop-color="#0BE8FF"/></linearGradient><linearGradient id="h" x1="26.012" y1="19.567" x2="26.012" y2="59.969" gradientUnits="userSpaceOnUse"><stop offset=".186" stop-color="#0080FF"/><stop offset=".378" stop-color="#039BFF"/><stop offset=".797" stop-color="#09D3FF"/><stop offset="1" stop-color="#0BE8FF"/></linearGradient><linearGradient id="i" x1="28.642" y1="19.564" x2="28.642" y2="59.966" gradientUnits="userSpaceOnUse"><stop offset=".186" stop-color="#0080FF"/><stop offset=".378" stop-color="#039BFF"/><stop offset=".797" stop-color="#09D3FF"/><stop offset="1" stop-color="#0BE8FF"/></linearGradient><linearGradient id="j" x1="26.011" y1="19.564" x2="26.011" y2="59.966" gradientUnits="userSpaceOnUse"><stop offset=".186" stop-color="#0080FF"/><stop offset=".378" stop-color="#039BFF"/><stop offset=".797" stop-color="#09D3FF"/><stop offset="1" stop-color="#0BE8FF"/></linearGradient><linearGradient id="k" x1="48.355" y1="19.565" x2="48.355" y2="59.966" gradientUnits="userSpaceOnUse"><stop offset=".186" stop-color="#0080FF"/><stop offset=".378" stop-color="#039BFF"/><stop offset=".797" stop-color="#09D3FF"/><stop offset="1" stop-color="#0BE8FF"/></linearGradient><linearGradient id="l" x1="50.984" y1="19.565" x2="50.984" y2="59.966" gradientUnits="userSpaceOnUse"><stop offset=".186" stop-color="#0080FF"/><stop offset=".378" stop-color="#039BFF"/><stop offset=".797" stop-color="#09D3FF"/><stop offset="1" stop-color="#0BE8FF"/></linearGradient><linearGradient id="m" x1="38.5" y1="61.672" x2="38.5" y2="4.129" gradientUnits="userSpaceOnUse"><stop stop-color="#7048E8"/><stop offset=".311" stop-color="#0080FF"/><stop offset=".36" stop-color="#018AFF"/><stop offset=".66" stop-color="#08C5FF"/><stop offset=".882" stop-color="#0BE9FF"/><stop offset="1" stop-color="#0DF7FF"/></linearGradient></defs></svg>